<?xml version="1.0" standalone="no"?><!DOCTYPE svg PUBLIC "-//W3C//DTD SVG 1.1//EN" "http://www.w3.org/Graphics/SVG/1.1/DTD/svg11.dtd"><svg t="1611560920954" class="icon" viewBox="0 0 1097 1024" version="1.1" xmlns="http://www.w3.org/2000/svg" p-id="2635" width="21.42578125" height="20" xmlns:xlink="http://www.w3.org/1999/xlink"><defs><style type="text/css"></style></defs><path d="M1078.857143 585.142857h-36.571429c-39.588571 0-74.057143-69.504-107.392-136.722286C890.166857 358.235429 839.442286 256 749.714286 256c-90.605714 0-133.339429 102.820571-171.062857 193.517714C550.930286 516.205714 522.258286 585.142857 483.547429 585.142857c-39.789714 0-52.169143-30.061714-69.065143-79.104C398.573714 459.830857 378.752 402.285714 310.857143 402.285714c-62.299429 0-86.326857 48.768-107.538286 91.794286C179.236571 542.939429 158.445714 585.142857 91.428571 585.142857H73.142857V91.428571c0-30.244571 24.612571-54.857143 54.857143-54.857142h841.142857c30.244571 0 54.857143 24.612571 54.857143 54.857142v438.857143a18.285714 18.285714 0 0 0 36.571429 0V91.428571c0-50.413714-41.014857-91.428571-91.428572-91.428571H128C77.586286 0 36.571429 41.014857 36.571429 91.428571v493.714286H18.285714a18.285714 18.285714 0 0 0 0 36.571429h73.142857c89.764571 0 120.228571-61.805714 144.694858-111.469715C258.596571 464.658286 273.152 438.857143 310.857143 438.857143c39.789714 0 52.169143 30.061714 69.065143 79.104 14.793143 42.989714 32.987429 95.762286 90.075428 102.930286A18.230857 18.230857 0 0 0 475.428571 621.714286h8.118858c63.122286 0 95.067429-76.818286 128.877714-158.134857C647.369143 379.501714 683.52 292.571429 749.714286 292.571429c67.053714 0 110.445714 87.497143 152.411428 172.105142 35.968 72.502857 70.198857 141.220571 121.874286 154.532572V932.571429c0 30.244571-24.612571 54.857143-54.857143 54.857142h-54.857143V621.714286a18.285714 18.285714 0 0 0-36.571428 0v365.714285h-109.714286V365.714286a18.285714 18.285714 0 0 0-36.571429 0v621.714285h-109.714285V658.285714a18.285714 18.285714 0 0 0-36.571429 0v329.142857h-109.714286V676.571429a18.285714 18.285714 0 0 0-36.571428 0v310.857142h-109.714286V512a18.285714 18.285714 0 0 0-36.571428 0v475.428571h-109.714286V676.571429a18.285714 18.285714 0 0 0-36.571429 0v310.857142H128c-30.244571 0-54.857143-24.612571-54.857143-54.857142V676.571429a18.285714 18.285714 0 0 0-36.571428 0v256c0 50.413714 41.014857 91.428571 91.428571 91.428571h841.142857c50.413714 0 91.428571-41.014857 91.428572-91.428571V621.714286h18.285714a18.285714 18.285714 0 0 0 0-36.571429" fill="#13227a" p-id="2636"></path></svg>